<?xml version="1.0" encoding="UTF-8" standalone="no"?>
<!-- Created with Inkscape (http://www.inkscape.org/) -->

<svg
   xmlns:dc="http://purl.org/dc/elements/1.1/"
   xmlns:cc="http://creativecommons.org/ns#"
   xmlns:rdf="http://www.w3.org/1999/02/22-rdf-syntax-ns#"
   xmlns:svg="http://www.w3.org/2000/svg"
   xmlns="http://www.w3.org/2000/svg"
   xmlns:xlink="http://www.w3.org/1999/xlink"
   xmlns:sodipodi="http://sodipodi.sourceforge.net/DTD/sodipodi-0.dtd"
   xmlns:inkscape="http://www.inkscape.org/namespaces/inkscape"
   width="128mm"
   height="128mm"
   viewBox="0 0 128 128"
   version="1.1"
   id="svg8"
   inkscape:version="0.92.4 (5da689c313, 2019-01-14)"
   sodipodi:docname="WolfTraceIcon.svg"
   inkscape:export-filename="D:\DWF\Delphi\Tools\DWHex\Data\WolfTraceIcon.png"
   inkscape:export-xdpi="50.799999"
   inkscape:export-ydpi="50.799999">
  <defs
     id="defs2">
    <linearGradient
       id="linearGradient4594"
       inkscape:collect="always">
      <stop
         id="stop4590"
         offset="0"
         style="stop-color:#127e00;stop-opacity:1" />
      <stop
         id="stop4592"
         offset="1"
         style="stop-color:#8cff00;stop-opacity:1" />
    </linearGradient>
    <linearGradient
       id="Paw"
       inkscape:collect="always">
      <stop
         id="stop4584"
         offset="0"
         style="stop-color:#3e2600;stop-opacity:1" />
      <stop
         id="stop4586"
         offset="1"
         style="stop-color:#bc6a00;stop-opacity:1" />
    </linearGradient>
    <linearGradient
       inkscape:collect="always"
       id="BG-1">
      <stop
         style="stop-color:#007e00;stop-opacity:1"
         offset="0"
         id="stop4533" />
      <stop
         style="stop-color:#72ff00;stop-opacity:1"
         offset="1"
         id="stop4535" />
    </linearGradient>
    <linearGradient
       inkscape:collect="always"
       xlink:href="#BG-1"
       id="linearGradient4539"
       x1="20.637499"
       y1="267.36667"
       x2="137.05415"
       y2="149.3625"
       gradientUnits="userSpaceOnUse"
       gradientTransform="translate(-19.314584,-148.16667)" />
    <linearGradient
       inkscape:collect="always"
       xlink:href="#linearGradient4594"
       id="linearGradient4563"
       gradientUnits="userSpaceOnUse"
       gradientTransform="matrix(1.0823193,0,0,1.0677587,-21.336363,10.516876)"
       x1="23.409325"
       y1="264.5571"
       x2="134.28233"
       y2="152.17213" />
    <linearGradient
       inkscape:collect="always"
       xlink:href="#Paw"
       id="linearGradient4572"
       x1="26.196436"
       y1="275.8873"
       x2="105.87546"
       y2="197.83522"
       gradientUnits="userSpaceOnUse"
       gradientTransform="matrix(1.0755194,0,0,1.0755194,-6.7967486,-17.344945)" />
  </defs>
  <sodipodi:namedview
     id="base"
     pagecolor="#ffffff"
     bordercolor="#666666"
     borderopacity="1.0"
     inkscape:pageopacity="0.0"
     inkscape:pageshadow="2"
     inkscape:zoom="0.5"
     inkscape:cx="612.41817"
     inkscape:cy="274.45989"
     inkscape:document-units="mm"
     inkscape:current-layer="layer1"
     showgrid="true"
     inkscape:window-width="1920"
     inkscape:window-height="1017"
     inkscape:window-x="1912"
     inkscape:window-y="-8"
     inkscape:window-maximized="1"
     inkscape:snap-grids="true"
     inkscape:snap-global="true">
    <inkscape:grid
       type="xygrid"
       id="grid4561"
       units="mm"
       spacingx="1"
       spacingy="1" />
  </sodipodi:namedview>
  <metadata
     id="metadata5">
    <rdf:RDF>
      <cc:Work
         rdf:about="">
        <dc:format>image/svg+xml</dc:format>
        <dc:type
           rdf:resource="http://purl.org/dc/dcmitype/StillImage" />
        <dc:title></dc:title>
      </cc:Work>
    </rdf:RDF>
  </metadata>
  <g
     inkscape:label="Layer 1"
     inkscape:groupmode="layer"
     id="layer1"
     transform="translate(0,-169)">
    <path
       style="fill:url(#linearGradient4563);fill-opacity:1;stroke:#013200;stroke-width:3;stroke-miterlimit:4;stroke-dasharray:none;stroke-opacity:0.95238097"
       d="m 26,173 h 98 l 0,98 -22,22 H 4 l 0,-98 z"
       id="rect3726"
       inkscape:connector-curvature="0"
       sodipodi:nodetypes="ccccccc" />
    <path
       style="fill:url(#linearGradient4572);fill-opacity:1;stroke:none;stroke-width:1.09001267;stroke-miterlimit:4;stroke-dasharray:none;stroke-opacity:1"
       d="m 49.645219,280.17945 c -2.33792,-0.25888 -4.804985,-1.0453 -6.489398,-2.06862 -3.185784,-1.93545 -5.17991,-4.6997 -6.044157,-8.37844 -0.285672,-1.21599 -0.392465,-3.68999 -0.219658,-5.08874 0.243892,-1.97415 0.861215,-4.01615 1.784525,-5.90291 1.003994,-2.0516 1.996129,-2.93118 6.005882,-5.3244 2.125326,-1.26852 3.224434,-2.07667 4.330176,-3.18389 0.955542,-0.95686 1.472873,-1.71918 2.444892,-3.60276 3.01185,-5.83637 5.747741,-8.46658 9.558742,-9.18951 0.971534,-0.18431 2.768311,-0.18622 3.757766,-0.004 4.037148,0.7434 9.211223,4.23043 12.429298,8.37659 0.505934,0.65185 1.246015,1.49159 1.644627,1.86613 1.334358,1.25373 3.375049,2.57313 6.265424,4.05093 1.789514,0.91495 2.403326,1.32959 3.25599,2.19955 0.770747,0.78636 1.304713,1.49744 1.830848,2.4381 2.483578,4.44027 2.60694,11.1977 0.290734,15.92605 -1.462221,2.98505 -3.399472,4.60053 -6.885264,5.74162 -4.058353,1.32857 -9.492488,1.39538 -14.554618,0.17902 -1.67261,-0.4019 -2.660156,-0.52251 -3.743378,-0.45716 -1.126932,0.068 -1.886802,0.23365 -3.824549,0.83376 -2.433814,0.75376 -4.185477,1.1675 -6.192124,1.46256 -1.151901,0.16936 -4.566352,0.24565 -5.645758,0.12613 z M 37.033308,248.96633 c -2.893129,-0.73952 -5.24516,-2.60109 -6.545146,-5.18033 -0.514075,-1.01994 -0.851321,-2.20809 -1.118417,-3.94029 -0.196851,-1.27662 -0.225629,-4.85834 -0.04976,-6.19212 0.460044,-3.4889 1.091355,-5.66641 2.097045,-7.23314 0.456197,-0.71069 1.393972,-1.77574 1.954999,-2.2203 1.237024,-0.98029 2.166764,-1.32777 3.41878,-1.27772 0.680702,0.0272 0.882489,0.0763 1.471811,0.35819 0.835043,0.3994 2.372693,1.54184 3.234837,2.40339 1.194195,1.19339 1.604923,2.28955 2.235551,5.96623 0.404828,2.36024 0.635732,3.34962 1.185477,5.07957 0.517007,1.62697 0.626103,2.1459 0.62764,2.98553 0.0017,0.91995 -0.103465,1.27487 -1.063769,3.59067 -1.312088,3.16412 -1.917958,4.14433 -3.056352,4.94466 -1.057571,0.74351 -1.333771,0.83402 -2.61702,0.85765 -0.851167,0.0158 -1.299029,-0.0201 -1.775683,-0.14199 z M 90,242.93074 c -2.96943,-0.49373 -5.801796,-2.99665 -7.200506,-6.36295 -0.401957,-0.9674 -0.412983,-1.41423 -0.119088,-4.82648 0.530436,-6.15854 0.931076,-8.59542 1.698398,-10.33047 0.392599,-0.88773 0.648479,-1.0842 2.797047,-2.14754 2.339956,-1.15805 2.887497,-1.36041 3.862187,-1.42737 1.167669,-0.0802 1.671507,0.22173 2.991813,1.79302 2.640839,3.14281 4.397052,6.49239 4.979563,9.49733 0.400556,2.06631 0.312781,3.53492 -0.371311,6.21192 -0.494427,1.93479 -1.108714,3.40371 -1.942112,4.6441 -0.482894,0.71869 -1.535888,1.74412 -2.185995,2.12874 -1.294924,0.76611 -2.984953,1.07329 -4.509996,0.8197 z M 71.681883,231.77745 c -1.041356,-0.27861 -2.001817,-1.06793 -3.414775,-2.8063 -2.838651,-3.49238 -4.09648,-6.09871 -4.749957,-9.8423 -0.200609,-1.14923 -0.22974,-4.85221 -0.048,-6.1005 0.469048,-3.22157 1.42691,-6.49433 2.592266,-8.85709 1.230986,-2.49582 2.809,-4.1053 4.548669,-4.63935 0.691477,-0.21228 1.887617,-0.19041 2.574292,0.047 0.300499,0.1039 1.025972,0.35391 1.61216,0.5555 1.848645,0.63582 2.958687,1.28067 4.146027,2.40853 1.407521,1.33701 2.665126,3.37144 3.297152,5.33385 1.078699,3.34926 1.359366,7.70179 0.724682,11.23832 -0.542189,3.02114 -1.749332,5.68693 -3.649292,8.05891 -2.971182,3.7093 -5.430824,5.19264 -7.633231,4.60338 z m -19.268095,-0.0431 c -0.920983,-0.15603 -1.626501,-0.5592 -2.950704,-1.68624 -0.425707,-0.36231 -1.327206,-1.11532 -2.003333,-1.67333 -3.720545,-3.07055 -5.015674,-5.10998 -5.38169,-8.47445 -0.149371,-1.37306 -0.0577,-7.17994 0.136512,-8.6477 0.314232,-2.37478 0.681523,-3.83774 1.222399,-4.86899 0.354694,-0.67627 2.222672,-2.75708 3.442011,-3.83419 2.776933,-2.45302 5.052144,-3.01256 6.997955,-1.72101 0.669366,0.4443 3.848978,3.60698 4.529376,4.50524 1.42054,1.87541 2.206843,3.69038 2.623445,6.05554 0.315324,1.79017 0.63766,10.23491 0.461418,12.08853 -0.262483,2.76066 -0.839129,4.04438 -2.26744,5.04773 -0.334981,0.2353 -1.147687,0.80943 -1.806013,1.27582 -2.298137,1.62808 -3.671759,2.15872 -5.003936,1.93305 z M 35.380739,221.36011 c -1.521992,-0.49668 -2.308568,-1.61608 -2.308568,-3.28534 0,-1.71196 0.979734,-5.54609 1.800921,-7.04784 0.319181,-0.58369 0.621891,-0.70948 1.093401,-0.45434 0.728128,0.394 1.22612,1.39684 1.387937,2.79496 0.05376,0.46454 0.34978,1.86905 0.657808,3.12115 0.5034,2.04622 0.560511,2.37451 0.564578,3.2454 0.0051,1.0931 -0.05007,1.21208 -0.723963,1.56127 -0.534114,0.27678 -1.726686,0.308 -2.472114,0.0647 z m 53.412265,-5.32628 c -0.90251,-0.28949 -1.691815,-1.34164 -1.912718,-2.54972 -0.145616,-0.79632 -0.05699,-2.36513 0.312364,-5.52927 0.33209,-2.845 0.477259,-3.63888 0.73822,-4.03716 0.173608,-0.26495 0.249542,-0.27607 0.434824,-0.0637 0.252646,0.28963 0.367994,0.58866 1.413802,3.66518 2.097564,6.17062 2.042552,5.99066 2.088164,6.82955 0.05119,0.94142 -0.08948,1.23104 -0.754434,1.55291 -0.55245,0.26744 -1.695417,0.33255 -2.320222,0.13214 z M 51.015241,197.22654 c -0.906282,-0.19022 -1.614332,-0.70166 -2.007421,-1.44998 -0.744691,-1.41768 -0.373437,-4.08169 1.275415,-9.15201 0.756199,-2.32538 0.852257,-2.57134 1.112343,-2.84819 0.232171,-0.24713 0.623924,-0.26815 0.826489,-0.0444 0.370345,0.40922 0.774408,1.56368 1.425387,4.07249 0.794475,3.06183 1.23374,5.79295 1.166371,7.25187 -0.05916,1.28114 -0.274701,1.57461 -1.463324,1.99239 -0.589687,0.20725 -1.767498,0.29689 -2.33526,0.17774 z m 20.262754,-0.72174 c -0.863861,-0.34848 -1.565643,-1.26651 -1.81959,-2.3803 -0.236565,-1.03755 -0.25995,-1.80958 -0.110217,-3.6386 0.07973,-0.97391 0.186766,-2.47447 0.237856,-3.33454 0.204414,-3.44115 0.749032,-4.53188 1.844941,-3.69495 1.414209,1.08 2.930797,4.32559 3.618463,7.74371 0.354951,1.76434 0.531529,3.80818 0.363958,4.21274 -0.129475,0.31258 -0.749807,0.75561 -1.455008,1.03916 -0.638435,0.25671 -2.103356,0.28554 -2.680403,0.0528 z"
       id="path3724"
       inkscape:connector-curvature="0"
       sodipodi:nodetypes="ccscccsssccsscccccccccccssssscccsscasccccscccccscccccsscssccssssccsssscsscsssssscssssscscccccccccccccssccsccccccsssscscc" />
    <path
       style="fill:#030000;fill-opacity:1;stroke:#000000;stroke-width:1;stroke-miterlimit:4;stroke-dasharray:none;stroke-opacity:1"
       d="m 399.19916,102.61232 c -2.17376,-0.24071 -4.46759,-0.97192 -6.03373,-1.92338 -2.96209,-1.799543 -4.81619,-4.369693 -5.61975,-7.790123 -0.26562,-1.13061 -0.36491,-3.4309 -0.20424,-4.73142 0.22677,-1.83554 0.80074,-3.73417 1.65922,-5.48843 0.9335,-1.907547 1.85597,-2.725356 5.58417,-4.950539 1.97609,-1.179441 2.99803,-1.930847 4.02613,-2.960343 0.88844,-0.889654 1.36945,-1.59846 2.27322,-3.349779 2.80036,-5.426556 5.34415,-7.872084 8.88756,-8.544256 0.90331,-0.171354 2.57392,-0.17314 3.4939,-0.0037 3.75367,0.691216 8.56444,3.933386 11.55656,7.788421 0.4704,0.606073 1.15852,1.386864 1.52914,1.735092 1.24067,1.165694 3.13807,2.392461 5.82549,3.766482 1.66386,0.850696 2.23457,1.236236 3.02736,2.045107 0.71663,0.731158 1.21311,1.392317 1.7023,2.266908 2.30918,4.128487 2.42389,10.411427 0.27032,14.807777 -1.35955,2.77544 -3.16078,4.27749 -6.40181,5.338463 -3.77339,1.23527 -8.82595,1.2974 -13.53264,0.16645 -1.55516,-0.37368 -2.47337,-0.48583 -3.48053,-0.42506 -1.0478,0.0632 -1.75432,0.21724 -3.556,0.77522 -2.26292,0.70083 -3.89159,1.08552 -5.75733,1.35985 -1.07102,0.15748 -4.24572,0.22842 -5.24934,0.11728 z M 387.47282,73.590887 c -2.68998,-0.687588 -4.87686,-2.41845 -6.08557,-4.816578 -0.47798,-0.948336 -0.79154,-2.053058 -1.03988,-3.66363 -0.18303,-1.186979 -0.20979,-4.517191 -0.0463,-5.757333 0.42774,-3.243914 1.01472,-5.268532 1.94979,-6.725251 0.42417,-0.660789 1.2961,-1.651047 1.81773,-2.064414 1.15016,-0.911437 2.01462,-1.234511 3.17872,-1.187984 0.63291,0.02529 0.82053,0.07096 1.36847,0.333033 0.77641,0.371354 2.20609,1.433574 3.0077,2.234647 1.11034,1.109602 1.49223,2.128782 2.07857,5.547302 0.37641,2.194497 0.5911,3.114413 1.10224,4.7229 0.48071,1.512707 0.58214,1.995204 0.58357,2.7759 0.002,0.85535 -0.0962,1.185333 -0.98907,3.338533 -1.21996,2.941953 -1.78329,3.853318 -2.84175,4.597459 -0.98331,0.691308 -1.24012,0.775467 -2.43326,0.797427 -0.7914,0.01458 -1.20782,-0.01873 -1.651,-0.132011 z m 49.24755,-5.611791 c -2.76093,-0.459073 -5.39442,-2.786245 -6.69492,-5.916168 -0.37373,-0.89947 -0.38398,-1.314926 -0.11072,-4.487582 0.49319,-5.726107 0.8657,-7.991869 1.57914,-9.60509 0.36503,-0.82541 0.60295,-1.008078 2.60065,-1.996749 2.17565,-1.076743 2.68475,-1.264894 3.591,-1.327155 1.08568,-0.07459 1.55414,0.206158 2.78174,1.667118 2.4554,2.922148 4.0883,6.036519 4.62991,8.830466 0.37243,1.921222 0.29081,3.286712 -0.34525,5.775743 -0.4597,1.798931 -1.03085,3.164713 -1.80573,4.318 -0.44898,0.668229 -1.42805,1.62166 -2.0325,1.979269 -1.204,0.712321 -2.77536,0.997921 -4.19332,0.762148 z M 419.68849,57.608948 c -0.96824,-0.259054 -1.86126,-0.992944 -3.175,-2.609239 -2.63933,-3.24716 -3.80884,-5.670479 -4.41643,-9.151215 -0.18653,-1.068536 -0.21361,-4.511514 -0.0446,-5.672148 0.43611,-2.995361 1.32671,-6.038321 2.41024,-8.235172 1.14455,-2.320575 2.61176,-3.817035 4.22928,-4.313588 0.64292,-0.197368 1.75507,-0.177045 2.39353,0.04374 0.2794,0.09662 0.95393,0.329044 1.49896,0.516497 1.71884,0.591171 2.75094,1.190741 3.85491,2.239402 1.30869,1.243126 2.47799,3.134718 3.06563,4.959315 1.00296,3.114096 1.26392,7.161002 0.6738,10.449214 -0.50412,2.80901 -1.6265,5.287613 -3.39305,7.493029 -2.76255,3.448855 -5.04949,4.828043 -7.09725,4.280165 z m -17.91516,-0.04003 c -0.85631,-0.14506 -1.51229,-0.519932 -2.74351,-1.56783 -0.39582,-0.336884 -1.23402,-1.037006 -1.86267,-1.555833 -3.4593,-2.85496 -4.66349,-4.751175 -5.0038,-7.87941 -0.13889,-1.276639 -0.0537,-6.675792 0.12692,-8.040492 0.29217,-2.208014 0.63367,-3.568255 1.13657,-4.527095 0.32979,-0.628785 2.0666,-2.56349 3.20032,-3.56497 2.58195,-2.280775 4.6974,-2.801027 6.50659,-1.600159 0.62236,0.413101 3.57871,3.353694 4.21134,4.18889 1.32079,1.743727 2.05188,3.431261 2.43923,5.630334 0.29318,1.664473 0.59289,9.516266 0.42902,11.239728 -0.24405,2.56681 -0.78021,3.760388 -2.10823,4.693287 -0.31146,0.218795 -1.0671,0.7526 -1.6792,1.186233 -2.13677,1.513763 -3.41394,2.007145 -4.65258,1.797317 z m -15.83704,-9.645871 c -1.41512,-0.461809 -2.14647,-1.502593 -2.14647,-3.054652 0,-1.591741 0.91094,-5.156671 1.67447,-6.55296 0.29677,-0.542709 0.57822,-0.659664 1.01662,-0.422439 0.67701,0.366335 1.14003,1.298751 1.29048,2.598707 0.05,0.431921 0.32522,1.737815 0.61162,2.901981 0.46806,1.90255 0.52116,2.207795 0.52494,3.01752 0.005,1.016344 -0.0466,1.12698 -0.67313,1.451655 -0.49661,0.257334 -1.60544,0.286367 -2.29853,0.06019 z m 49.66183,-4.952296 c -0.83914,-0.269145 -1.57302,-1.247429 -1.77841,-2.370688 -0.13539,-0.740397 -0.053,-2.199048 0.29043,-5.141015 0.30877,-2.645225 0.44375,-3.383367 0.68638,-3.753678 0.16142,-0.246344 0.23202,-0.256681 0.4043,-0.05919 0.2349,0.269301 0.34215,0.547336 1.31453,3.407833 1.95028,5.737341 1.89913,5.570024 1.94154,6.349999 0.0476,0.875314 -0.0832,1.144601 -0.70146,1.443882 -0.51366,0.248661 -1.57638,0.309179 -2.15731,0.122854 z M 400.47299,25.484087 c -0.84265,-0.176859 -1.50098,-0.652381 -1.86647,-1.348168 -0.6924,-1.318135 -0.34721,-3.795087 1.18586,-8.509398 0.7031,-2.162084 0.79242,-2.390776 1.03424,-2.648185 0.21587,-0.229782 0.58011,-0.249307 0.76846,-0.04119 0.34434,0.380491 0.72003,1.453882 1.3253,3.786537 0.73869,2.846834 1.14711,5.386178 1.08447,6.742669 -0.055,1.191187 -0.25541,1.46405 -1.36058,1.852483 -0.54828,0.192705 -1.64339,0.276054 -2.17128,0.165255 z m 18.83997,-0.671065 c -0.80321,-0.323999 -1.45571,-1.177572 -1.69183,-2.213159 -0.21995,-0.964686 -0.24169,-1.682518 -0.10247,-3.383108 0.0741,-0.905524 0.17365,-2.300711 0.22115,-3.100413 0.19006,-3.199505 0.69644,-4.213649 1.7154,-3.435495 1.3149,1.004164 2.725,4.021853 3.36438,7.199978 0.33003,1.640445 0.49421,3.54078 0.33841,3.916926 -0.12039,0.290629 -0.69716,0.702564 -1.35285,0.966203 -0.5936,0.238678 -1.95566,0.265495 -2.49219,0.04907 z"
       id="path3724-3"
       inkscape:connector-curvature="0"
       sodipodi:nodetypes="ccscccsssccsscccccccccccssssscccsscasccccscccccscccccsscssccssssccsssscsscsssssscssssscscccccccccccccssccsccccccsssscscc" />
  </g>
</svg>
